HIERARCHY
ROOT Hips
{
	OFFSET	0.000000	0.000000	0.000000
	CHANNELS 6 Xposition Yposition Zposition Zrotation Xrotation Yrotation
	JOINT LeftUpLeg
	{
		OFFSET	12.811937	-7.635976	0.557276
		CHANNELS 3 Zrotation Xrotation Yrotation
		JOINT LeftLeg
		{
			OFFSET	-0.429270	-42.206159	-1.204951
			CHANNELS 3 Zrotation Xrotation Yrotation
			JOINT LeftFoot
			{
				OFFSET	-2.112259	-42.464481	-3.973220
				CHANNELS 3 Zrotation Xrotation Yrotation
				JOINT LeftFootHeel
				{
					OFFSET	0.387196	-5.329707	-3.419729
					CHANNELS 3 Zrotation Xrotation Yrotation
					End Site
					{
						OFFSET	0.327567	-0.000003	16.505428
					}
				}
			}
		}
	}
	JOINT RightUpLeg
	{
		OFFSET	-12.811937	-7.635976	0.557276
		CHANNELS 3 Zrotation Xrotation Yrotation
		JOINT RightLeg
		{
			OFFSET	0.429270	-42.206159	-1.204951
			CHANNELS 3 Zrotation Xrotation Yrotation
			JOINT RightFoot
			{
				OFFSET	2.112259	-42.464481	-3.973220
				CHANNELS 3 Zrotation Xrotation Yrotation
				JOINT RightFootHeel
				{
					OFFSET	-0.387198	-5.329707	-3.419729
					CHANNELS 3 Zrotation Xrotation Yrotation
					End Site
					{
						OFFSET	-0.327566	-0.000003	16.505428
					}
				}
			}
		}
	}
	JOINT Spine
	{
		OFFSET	0.000000	13.731315	-1.007646
		CHANNELS 3 Zrotation Xrotation Yrotation
		JOINT Spine1
		{
			OFFSET	0.000000	12.091746	-0.604589
			CHANNELS 3 Zrotation Xrotation Yrotation
			JOINT LeftShoulder
			{
				OFFSET	5.746115	20.990027	-0.833816
				CHANNELS 3 Zrotation Xrotation Yrotation
				JOINT LeftArm
				{
					OFFSET	10.881538	-1.359258	0.219250
					CHANNELS 3 Zrotation Xrotation Yrotation
					JOINT LeftForeArm
					{
						OFFSET	4.390314	-31.537147	0.202818
						CHANNELS 3 Zrotation Xrotation Yrotation
						JOINT LeftHand
						{
							OFFSET	3.168650	-24.865023	5.373370
							CHANNELS 3 Zrotation Xrotation Yrotation
							End Site
							{
								OFFSET	1.457528	-10.806075	2.170267
							}
						}
					}
				}
			}
			JOINT RightShoulder
			{
				OFFSET	-5.746115	20.990027	-0.833816
				CHANNELS 3 Zrotation Xrotation Yrotation
				JOINT RightArm
				{
					OFFSET	-10.881538	-1.359258	0.219250
					CHANNELS 3 Zrotation Xrotation Yrotation
					JOINT RightForeArm
					{
						OFFSET	-4.390314	-31.537147	0.202818
						CHANNELS 3 Zrotation Xrotation Yrotation
						JOINT RightHand
						{
							OFFSET	-3.168650	-24.865023	5.373370
							CHANNELS 3 Zrotation Xrotation Yrotation
							End Site
							{
								OFFSET	-1.457528	-10.806075	2.170267
							}
						}
					}
				}
			}
			JOINT Neck
			{
				OFFSET	0.000000	27.075639	0.680489
				CHANNELS 3 Zrotation Xrotation Yrotation
				JOINT Head
				{
					OFFSET	0.000000	12.391287	1.239129
					CHANNELS 3 Zrotation Xrotation Yrotation
					End Site
					{
						OFFSET	0.000000	13.818691	-0.105853
					}
				}
			}
		}
	}
}
MOTION
Frames:    16
Frame Time: 0.016667
0.000000	100.539065	0.000000	-2.823034	0.099053	79.793571	4.828593	-3.156590	8.756084	-2.190136	-1.462179	0.765252	-3.004712	0.853481	9.766940	0.	0.	0.	-2.080230	-4.808944	-4.430189	5.418765	-3.179132	3.449842	-1.050362	6.179366	8.609655	0.	0.	0.	3.297351	3.079050	16.962763	-1.073889	0.937656	-23.028425	-0.227101	-1.398664	3.405202	0.788211	-3.030315	-6.990882	-4.845048	-7.177510	-3.883573	-0.823926	0.403593	-1.266300	-0.038116	0.002256	10.797873	-5.391397	-0.794868	5.596165	4.326007	-10.300087	-2.549999	-3.652351	0.369807	7.859617	-4.978872	-10.997201	13.036647	2.518574	-10.315926	-10.788613	
0.001630	100.538406	0.000727	-2.823244	0.101793	79.801056	4.825524	-3.157912	8.748675	-2.190136	-1.462179	0.765252	-3.004712	0.853481	9.766940	0.	0.	0.	-2.087142	-4.799355	-4.433141	5.422917	-3.189252	3.445889	-1.050362	6.179368	8.609654	0.	0.	0.	3.295091	3.077927	16.955320	-1.075185	0.934519	-23.018900	-0.227367	-1.395232	3.395708	0.788211	-3.030315	-6.990881	-4.845047	-7.177509	-3.883572	-0.823925	0.403595	-1.266300	-0.039179	0.001554	10.792948	-5.389672	-0.790619	5.591973	4.322225	-10.296854	-2.533551	-3.648381	0.367841	7.842334	-4.981682	-10.978731	12.801797	2.563257	-10.321631	-10.565193	
0.005975	100.536614	0.002678	-2.823806	0.109102	79.820992	4.817342	-3.161426	8.728936	-2.190136	-1.462180	0.765252	-3.004713	0.853480	9.766939	0.	0.	0.	-2.105318	-4.774138	-4.429675	5.426325	-3.200626	3.426068	-1.044316	6.162701	8.606961	0.	0.	0.	3.289061	3.074940	16.935497	-1.075639	0.934251	-22.991520	-0.228301	-1.417289	3.380245	0.789474	-3.007967	-7.003129	-4.845046	-7.177510	-3.883570	-0.823925	0.403596	-1.266298	-0.038866	0.001997	10.765582	-5.390141	-0.794274	5.597790	4.317512	-10.289938	-2.520444	-3.643728	0.365546	7.822085	-5.033671	-10.953945	12.415133	2.681945	-10.340979	-10.223172	
0.006653	100.536333	0.002981	-2.823896	0.110235	79.824089	4.816074	-3.161971	8.725872	-2.190136	-1.462180	0.765252	-3.004713	0.853480	9.766939	0.	0.	0.	-2.112138	-4.759285	-4.427891	5.426301	-3.200194	3.423984	-1.038593	6.146957	8.604422	0.	0.	0.	3.288126	3.074476	16.932421	-1.075908	0.934091	-22.975433	-0.228918	-1.432570	3.372369	0.788811	-2.992145	-7.006747	-4.844526	-7.178451	-3.883643	-0.823537	0.404853	-1.271212	-0.038680	0.002261	10.749491	-5.391832	-0.807786	5.618721	4.316545	-10.278271	-2.542704	-3.643727	0.365547	7.822081	-5.055359	-10.940989	12.130057	2.748143	-10.343900	-9.955347	
0.006653	100.536333	0.002981	-2.823896	0.110235	79.824089	4.816074	-3.161971	8.725872	-2.190136	-1.462180	0.765252	-3.004713	0.853480	9.766939	0.	0.	0.	-2.116817	-4.746486	-4.426456	5.424545	-3.194967	3.425485	-1.032014	6.128854	8.601521	0.	0.	0.	3.288126	3.074476	16.932421	-1.076142	0.933954	-22.961338	-0.229469	-1.446260	3.365637	0.783992	-2.976902	-6.996671	-4.842674	-7.181994	-3.883529	-0.822100	0.409537	-1.289546	-0.038517	0.002489	10.735402	-5.393009	-0.813689	5.636069	4.315074	-10.273834	-2.560744	-3.643728	0.365546	7.822082	-5.074104	-10.926331	11.715644	2.833499	-10.340750	-9.551401	
0.008195	100.536449	0.001198	-2.823896	0.110235	79.824089	4.813303	-3.160350	8.725545	-2.187644	-1.464208	0.765345	-3.004712	0.853481	9.766939	0.	0.	0.	-2.117918	-4.743474	-4.426103	5.417616	-3.177996	3.427757	-1.024636	6.108536	8.598238	0.	0.	0.	3.288126	3.074476	16.932421	-1.076193	0.933926	-22.958033	-0.229830	-1.458476	3.368797	0.781353	-2.963906	-6.992839	-4.841627	-7.184241	-3.882848	-0.821195	0.412477	-1.301039	-0.038481	0.002536	10.732098	-5.393761	-0.813031	5.651142	4.313040	-10.275695	-2.575973	-3.643727	0.365548	7.822081	-5.094185	-10.911161	11.290257	2.925683	-10.338055	-9.125740	
0.017989	100.536623	-0.012366	-2.823896	0.110235	79.824089	4.801936	-3.153696	8.724195	-2.185889	-1.468099	0.766490	-2.996294	0.848996	9.765756	0.	0.	0.	-2.117918	-4.743474	-4.426103	5.408370	-3.155689	3.430467	-1.016367	6.085779	8.594593	0.	0.	0.	3.288126	3.074476	16.932421	-1.076193	0.933926	-22.958033	-0.229905	-1.461280	3.370279	0.780554	-2.960884	-6.991352	-4.841033	-7.184111	-3.885932	-0.821195	0.412475	-1.301041	-0.041103	-0.007759	10.743596	-5.389909	-0.801935	5.650463	4.310522	-10.275892	-2.580737	-3.642475	0.364926	7.816607	-5.115179	-10.896184	10.893873	3.014688	-10.336361	-8.726410	
0.026812	100.536875	-0.024086	-2.823896	0.110235	79.824089	4.790298	-3.146883	8.722816	-2.181156	-1.473625	0.767389	-2.990594	0.845962	9.764957	0.	0.	0.	-2.117918	-4.743474	-4.426103	5.403748	-3.144531	3.431824	-1.012236	6.074391	8.592771	0.	0.	0.	3.288126	3.074476	16.932421	-1.076193	0.933926	-22.958033	-0.229905	-1.461280	3.370279	0.778605	-2.960390	-6.985223	-4.839827	-7.183835	-3.892211	-0.821196	0.412477	-1.301041	-0.042741	-0.014191	10.750779	-5.387195	-0.795273	5.643873	4.308254	-10.273949	-2.570836	-3.640091	0.363740	7.806207	-5.125283	-10.888583	10.686589	3.060503	-10.334789	-8.517435	
0.032459	100.536934	-0.032133	-2.823896	0.110235	79.824089	4.784388	-3.143423	8.722115	-2.181588	-1.474935	0.768104	-2.984876	0.842908	9.764149	0.	0.	0.	-2.117918	-4.743474	-4.426103	5.394212	-3.121507	3.434634	-1.003711	6.050903	8.589002	0.	0.	0.	3.288126	3.074476	16.932421	-1.076193	0.933926	-22.958033	-0.229905	-1.461280	3.370279	0.776625	-2.959889	-6.979006	-4.838599	-7.183558	-3.898584	-0.821195	0.412476	-1.301044	-0.044241	-0.020123	10.757402	-5.384696	-0.789129	5.637804	4.304370	-10.270622	-2.553893	-3.636014	0.361715	7.788408	-5.135692	-10.880779	10.476668	3.107077	-10.333134	-8.305837	
0.046689	100.536837	-0.053139	-2.823896	0.110235	79.824089	4.771980	-3.136161	8.720646	-2.188384	-1.474810	0.766648	-2.967071	0.833401	9.765094	0.	0.	0.	-2.117918	-4.743474	-4.426103	5.384034	-3.096940	3.437632	-0.994616	6.025836	8.584993	0.	0.	0.	3.288126	3.074476	16.932421	-1.076193	0.933926	-22.958033	-0.229905	-1.461280	3.370279	0.774652	-2.959381	-6.972809	-4.837376	-7.183291	-3.904932	-0.821195	0.412478	-1.301041	-0.048257	-0.035915	10.775031	-5.378025	-0.772776	5.621635	4.301337	-10.268012	-2.540628	-3.632829	0.360122	7.774477	-5.171602	-10.850745	9.618605	3.291811	-10.321295	-7.439844	
0.066379	100.537331	-0.084995	-2.823896	0.110235	79.824089	4.744133	-3.125902	8.694639	-2.182625	-1.480554	0.767193	-2.946739	0.822429	9.787410	0.	0.	0.	-2.117918	-4.743474	-4.426103	5.369480	-3.061822	3.441936	-0.981617	5.990002	8.579256	0.	0.	0.	3.288126	3.074476	16.932421	-1.076193	0.933926	-22.958033	-0.229905	-1.461280	3.370279	0.774652	-2.959381	-6.972809	-4.837376	-7.183291	-3.904932	-0.821195	0.412478	-1.301041	-0.051747	-0.049704	10.790437	-5.372201	-0.758497	5.607501	4.300660	-10.267434	-2.537673	-3.632118	0.359767	7.771370	-5.188494	-10.846992	9.150608	3.392055	-10.300593	-6.967825	
0.072078	100.537418	-0.094616	-2.823896	0.110235	79.824089	4.736500	-3.123498	8.685968	-2.182398	-1.481171	0.766092	-2.939759	0.818653	9.796263	0.	0.	0.	-2.117918	-4.743474	-4.426103	5.367263	-3.056493	3.442594	-0.979636	5.984566	8.578384	0.	0.	0.	3.288126	3.074476	16.932421	-1.076193	0.933926	-22.958033	-0.229905	-1.461280	3.370279	0.774652	-2.959381	-6.972809	-4.837376	-7.183291	-3.904932	-0.821195	0.412478	-1.301041	-0.052285	-0.051817	10.792794	-5.371309	-0.756311	5.605334	4.300661	-10.267435	-2.537675	-3.632118	0.359766	7.771369	-5.191793	-10.863680	8.937446	3.436211	-10.271995	-6.753160	
0.089384	100.537747	-0.125126	-2.823896	0.110235	79.824089	4.711520	-3.116735	8.653435	-2.180017	-1.483020	0.765975	-2.918265	0.807047	9.826022	0.	0.	0.	-2.117918	-4.743474	-4.426103	5.367263	-3.056493	3.442594	-0.979636	5.984566	8.578384	0.	0.	0.	3.288126	3.074476	16.932421	-1.076193	0.933926	-22.958033	-0.229905	-1.461280	3.370279	0.774652	-2.959381	-6.972809	-4.837935	-7.184779	-3.898665	-0.820698	0.414091	-1.307358	-0.052285	-0.051817	10.792794	-5.371309	-0.756311	5.605334	4.300661	-10.267435	-2.537675	-3.632118	0.359766	7.771369	-5.219547	-10.850159	8.308681	3.578932	-10.235603	-6.125570	
0.101261	100.538019	-0.146665	-2.823896	0.110235	79.824089	4.693288	-3.112233	8.628038	-2.177012	-1.484501	0.768981	-2.903707	0.799176	9.846378	0.	0.	0.	-2.117918	-4.743474	-4.426103	5.360847	-3.041010	3.444492	-0.973909	5.968763	8.575863	0.	0.	0.	3.288126	3.074476	16.932421	-1.076193	0.933926	-22.958033	-0.229905	-1.461280	3.370279	0.774652	-2.959381	-6.972809	-4.839141	-7.187965	-3.885165	-0.819622	0.417544	-1.320960	-0.052285	-0.051817	10.792794	-5.371309	-0.756311	5.605334	4.300661	-10.267435	-2.537675	-3.632118	0.359766	7.771369	-5.234035	-10.870667	7.896946	3.678742	-10.179783	-5.722516	
0.113896	100.538348	-0.169190	-2.823896	0.110235	79.824089	4.673606	-3.106971	8.602103	-2.172693	-1.486924	0.772947	-2.889117	0.791303	9.866206	0.	0.	0.	-2.117918	-4.743474	-4.426103	5.352655	-3.021244	3.446920	-0.966597	5.948594	8.572639	0.	0.	0.	3.288126	3.074476	16.932421	-1.076193	0.933926	-22.958033	-0.229905	-1.461280	3.370279	0.774652	-2.959381	-6.972809	-4.840444	-7.191400	-3.870630	-0.818456	0.421270	-1.335607	-0.052285	-0.051817	10.792794	-5.371309	-0.756311	5.605334	4.300661	-10.267435	-2.537675	-3.632118	0.359766	7.771369	-5.257821	-10.862226	7.521491	3.778342	-10.155393	-5.357840	
0.127085	100.538697	-0.192236	-2.823896	0.110235	79.824089	4.652875	-3.100994	8.576365	-2.167200	-1.490296	0.777168	-2.874763	0.783568	9.885506	0.	0.	0.	-2.117918	-4.743474	-4.426103	5.344877	-3.002467	3.449214	-0.959657	5.929433	8.569598	0.	0.	0.	3.288126	3.074476	16.932421	-1.076193	0.933926	-22.958033	-0.229905	-1.461280	3.370279	0.774652	-2.959381	-6.972809	-4.842509	-7.196821	-3.847691	-0.816605	0.427147	-1.358726	-0.052285	-0.051817	10.792794	-5.370781	-0.756768	5.594933	4.302052	-10.266150	-2.527164	-3.632118	0.359766	7.771369	-5.285210	-10.842822	7.122846	3.885163	-10.140045	-4.970735	
